<svg width="15" height="15" viewBox="0 0 15 15" fill="none" xmlns="http://www.w3.org/2000/svg">
<path fill-rule="evenodd" clip-rule="evenodd" d="M7.25 0C11.2542 0 14.5 3.3277 14.5 7.43337C14.5 10.7169 12.4251 13.5024 9.54608 14.4862C9.1785 14.5594 9.048 14.3273 9.048 14.1293C9.048 13.8843 9.0567 13.0839 9.0567 12.0892C9.0567 11.3961 8.8247 10.9438 8.56443 10.7132C10.179 10.5291 11.8755 9.90042 11.8755 7.04538C11.8755 6.23338 11.5942 5.57076 11.1287 5.05021C11.2041 4.86244 11.4528 4.10636 11.0577 3.08266C11.0577 3.08266 10.4501 2.88348 9.06612 3.84483C8.48685 3.68026 7.86625 3.59745 7.25 3.59455C6.63375 3.59745 6.01388 3.68026 5.43533 3.84483C4.04985 2.88348 3.44085 3.08266 3.44085 3.08266C3.04718 4.10636 3.29585 4.86244 3.37053 5.05021C2.90725 5.57076 2.62378 6.23338 2.62378 7.04538C2.62378 9.89317 4.31665 10.5315 5.92688 10.7192C5.71953 10.9048 5.53175 11.2322 5.4665 11.7129C5.05325 11.9029 4.00345 12.2316 3.35675 11.0955C3.35675 11.0955 2.97323 10.3813 2.24533 10.3291C2.24533 10.3291 1.53845 10.3197 2.19602 10.7808C2.19602 10.7808 2.6709 11.0092 3.00078 11.8683C3.00078 11.8683 3.42635 13.195 5.4433 12.7455C5.44693 13.3669 5.45345 13.9524 5.45345 14.1293C5.45345 14.3258 5.32005 14.5558 4.95827 14.4869C2.07712 13.5045 0 10.7176 0 7.43337C0 3.3277 3.24655 0 7.25 0Z" fill="white"/>
</svg>
