<svg width="16" height="15" viewBox="0 0 16 15" fill="none" xmlns="http://www.w3.org/2000/svg">
<path fill-rule="evenodd" clip-rule="evenodd" d="M15.1998 14.4H12.3198V9.3607C12.3198 7.9783 11.71 7.20703 10.6163 7.20703C9.42613 7.20703 8.7198 8.0107 8.7198 9.3607V14.4H5.8398V5.04H8.7198V6.09258C8.7198 6.09258 9.6234 4.50703 11.6596 4.50703C13.6964 4.50703 15.1998 5.75 15.1998 8.32184V14.4ZM2.55805 3.54305C1.58677 3.54305 0.799805 2.74965 0.799805 1.77117C0.799805 0.793412 1.58677 0 2.55805 0C3.52861 0 4.31556 0.793412 4.31556 1.77117C4.31628 2.74965 3.52861 3.54305 2.55805 3.54305ZM0.799805 14.4H4.3998V5.04H0.799805V14.4Z" fill="white"/>
</svg>
