<svg width="932" height="180" viewBox="0 0 932 180" fill="none" xmlns="http://www.w3.org/2000/svg">
<path d="M49.108 144.183C40.5289 144.183 32.8866 142.458 26.1811 139.006C19.4756 135.456 14.1999 130.575 10.3541 124.363C6.60691 118.15 4.73331 111.099 4.73331 103.211C4.73331 95.2232 6.60691 88.1725 10.3541 82.0587C14.1999 75.8462 19.4756 71.0143 26.1811 67.5629C32.8866 64.013 40.5289 62.238 49.108 62.238C57.4899 62.238 64.7871 64.013 70.9996 67.5629C77.212 71.0143 81.7974 75.9941 84.7557 82.5024L66.8579 92.117C64.7871 88.3698 62.1739 85.6087 59.0184 83.8337C55.9615 82.0587 52.6087 81.1712 48.9601 81.1712C45.0157 81.1712 41.4657 82.0587 38.3102 83.8337C35.1547 85.6087 32.6401 88.1232 30.7665 91.3774C28.9915 94.6315 28.104 98.576 28.104 103.211C28.104 107.845 28.9915 111.79 30.7665 115.044C32.6401 118.298 35.1547 120.813 38.3102 122.588C41.4657 124.363 45.0157 125.25 48.9601 125.25C52.6087 125.25 55.9615 124.412 59.0184 122.736C62.1739 120.961 64.7871 118.15 66.8579 114.304L84.7557 124.067C81.7974 130.476 77.212 135.456 70.9996 139.006C64.7871 142.458 57.4899 144.183 49.108 144.183ZM145.977 62.238C152.288 62.238 157.909 63.5199 162.839 66.0838C167.868 68.549 171.813 72.3949 174.672 77.6212C177.532 82.749 178.962 89.3559 178.962 97.4419V143H155.887V100.992C155.887 94.5822 154.457 89.8489 151.598 86.792C148.836 83.7351 144.892 82.2066 139.764 82.2066C136.116 82.2066 132.812 82.9955 129.854 84.5733C126.994 86.0524 124.726 88.3698 123.05 91.5253C121.472 94.6808 120.683 98.7239 120.683 103.654V143H97.6082V33.2465H120.683V85.4608L115.506 78.8045C118.366 73.4796 122.458 69.3872 127.783 66.5275C133.108 63.6678 139.173 62.238 145.977 62.238ZM239.949 144.183C230.877 144.183 222.89 142.408 215.987 138.858C209.183 135.308 203.907 130.476 200.16 124.363C196.413 118.15 194.539 111.099 194.539 103.211C194.539 95.2232 196.364 88.1725 200.012 82.0587C203.759 75.8462 208.838 71.0143 215.248 67.5629C221.657 64.013 228.905 62.238 236.991 62.238C244.781 62.238 251.783 63.9144 257.995 67.2671C264.306 70.5213 269.286 75.2546 272.935 81.467C276.583 87.5809 278.408 94.9274 278.408 103.506C278.408 104.394 278.358 105.429 278.26 106.613C278.161 107.697 278.062 108.733 277.964 109.719H213.325V96.2586H265.835L256.96 100.252C256.96 96.1107 256.122 92.5114 254.445 89.4545C252.769 86.3976 250.451 84.0309 247.493 82.3545C244.535 80.5795 241.083 79.692 237.139 79.692C233.195 79.692 229.694 80.5795 226.637 82.3545C223.679 84.0309 221.361 86.4469 219.685 89.6024C218.009 92.6593 217.17 96.3079 217.17 100.548V104.098C217.17 108.437 218.107 112.283 219.981 115.636C221.953 118.89 224.665 121.404 228.116 123.179C231.666 124.856 235.808 125.694 240.541 125.694C244.781 125.694 248.479 125.053 251.635 123.771C254.889 122.489 257.847 120.566 260.51 118.002L272.787 131.315C269.138 135.456 264.553 138.661 259.031 140.929C253.508 143.099 247.148 144.183 239.949 144.183ZM332.228 144.183C323.649 144.183 316.007 142.458 309.301 139.006C302.596 135.456 297.32 130.575 293.474 124.363C289.727 118.15 287.853 111.099 287.853 103.211C287.853 95.2232 289.727 88.1725 293.474 82.0587C297.32 75.8462 302.596 71.0143 309.301 67.5629C316.007 64.013 323.649 62.238 332.228 62.238C340.61 62.238 347.907 64.013 354.12 67.5629C360.332 71.0143 364.917 75.9941 367.876 82.5024L349.978 92.117C347.907 88.3698 345.294 85.6087 342.138 83.8337C339.082 82.0587 335.729 81.1712 332.08 81.1712C328.136 81.1712 324.586 82.0587 321.43 83.8337C318.275 85.6087 315.76 88.1232 313.887 91.3774C312.112 94.6315 311.224 98.576 311.224 103.211C311.224 107.845 312.112 111.79 313.887 115.044C315.76 118.298 318.275 120.813 321.43 122.588C324.586 124.363 328.136 125.25 332.08 125.25C335.729 125.25 339.082 124.412 342.138 122.736C345.294 120.961 347.907 118.15 349.978 114.304L367.876 124.067C364.917 130.476 360.332 135.456 354.12 139.006C347.907 142.458 340.61 144.183 332.228 144.183ZM399.809 126.729L400.401 98.6253L437.528 63.4213H465.04L429.393 99.6607L417.411 109.423L399.809 126.729ZM380.728 143V33.2465H403.803V143H380.728ZM440.043 143L413.122 109.571L427.618 91.6732L467.999 143H440.043ZM579.856 62.238C586.168 62.238 591.739 63.5199 596.571 66.0838C601.501 68.549 605.347 72.3949 608.108 77.6212C610.968 82.749 612.398 89.3559 612.398 97.4419V143H589.323V100.992C589.323 94.5822 587.992 89.8489 585.329 86.792C582.667 83.7351 578.92 82.2066 574.088 82.2066C570.735 82.2066 567.727 82.9955 565.065 84.5733C562.402 86.0524 560.332 88.3205 558.852 91.3774C557.373 94.4343 556.634 98.3294 556.634 103.063V143H533.559V100.992C533.559 94.5822 532.228 89.8489 529.565 86.792C527.001 83.7351 523.303 82.2066 518.471 82.2066C515.119 82.2066 512.111 82.9955 509.449 84.5733C506.786 86.0524 504.715 88.3205 503.236 91.3774C501.757 94.4343 501.017 98.3294 501.017 103.063V143H477.942V63.4213H499.982V85.1649L495.84 78.8045C498.601 73.381 502.497 69.2886 507.526 66.5275C512.653 63.6678 518.471 62.238 524.98 62.238C532.277 62.238 538.637 64.1116 544.061 67.8588C549.583 71.5074 553.232 77.1282 555.007 84.7212L546.871 82.5024C549.534 76.29 553.774 71.3595 559.592 67.7109C565.509 64.0623 572.263 62.238 579.856 62.238ZM681.893 143V127.469L680.414 124.067V96.2586C680.414 91.3281 678.885 87.4823 675.828 84.7212C672.87 81.9601 668.285 80.5795 662.072 80.5795C657.832 80.5795 653.641 81.2698 649.499 82.6504C645.456 83.9323 642.005 85.7073 639.145 87.9753L630.862 71.8525C635.201 68.7956 640.427 66.4289 646.541 64.7525C652.655 63.0762 658.867 62.238 665.178 62.238C677.308 62.238 686.725 65.0977 693.43 70.8171C700.136 76.5365 703.489 85.4608 703.489 97.5899V143H681.893ZM657.635 144.183C651.422 144.183 646.097 143.148 641.66 141.077C637.222 138.908 633.82 135.999 631.454 132.35C629.087 128.701 627.904 124.609 627.904 120.073C627.904 115.34 629.038 111.198 631.306 107.648C633.672 104.098 637.37 101.337 642.399 99.3648C647.429 97.294 653.986 96.2586 662.072 96.2586H683.224V109.719H664.587C659.163 109.719 655.416 110.606 653.345 112.381C651.373 114.156 650.387 116.375 650.387 119.038C650.387 121.996 651.521 124.363 653.789 126.138C656.156 127.814 659.36 128.652 663.403 128.652C667.249 128.652 670.701 127.765 673.758 125.99C676.814 124.116 679.033 121.404 680.414 117.854L683.964 128.504C682.287 133.632 679.23 137.527 674.793 140.19C670.356 142.852 664.636 144.183 657.635 144.183ZM756.914 144.183C747.546 144.183 740.249 141.817 735.022 137.083C729.796 132.251 727.183 125.102 727.183 115.636V45.8193H750.258V115.34C750.258 118.693 751.145 121.306 752.92 123.179C754.695 124.954 757.111 125.842 760.168 125.842C763.817 125.842 766.923 124.856 769.487 122.883L775.699 139.154C773.333 140.831 770.473 142.113 767.12 143C763.866 143.789 760.464 144.183 756.914 144.183ZM714.906 82.9462V65.1963H770.079V82.9462H714.906ZM825.69 144.183C816.618 144.183 808.631 142.408 801.728 138.858C794.924 135.308 789.648 130.476 785.901 124.363C782.154 118.15 780.28 111.099 780.28 103.211C780.28 95.2232 782.104 88.1725 785.753 82.0587C789.5 75.8462 794.579 71.0143 800.988 67.5629C807.398 64.013 814.646 62.238 822.732 62.238C830.522 62.238 837.523 63.9144 843.736 67.2671C850.047 70.5213 855.027 75.2546 858.675 81.467C862.324 87.5809 864.148 94.9274 864.148 103.506C864.148 104.394 864.099 105.429 864 106.613C863.902 107.697 863.803 108.733 863.705 109.719H799.065V96.2586H851.575L842.701 100.252C842.701 96.1107 841.862 92.5114 840.186 89.4545C838.51 86.3976 836.192 84.0309 833.234 82.3545C830.276 80.5795 826.824 79.692 822.88 79.692C818.935 79.692 815.435 80.5795 812.378 82.3545C809.419 84.0309 807.102 86.4469 805.426 89.6024C803.749 92.6593 802.911 96.3079 802.911 100.548V104.098C802.911 108.437 803.848 112.283 805.722 115.636C807.694 118.89 810.406 121.404 813.857 123.179C817.407 124.856 821.549 125.694 826.282 125.694C830.522 125.694 834.22 125.053 837.376 123.771C840.63 122.489 843.588 120.566 846.251 118.002L858.528 131.315C854.879 135.456 850.294 138.661 844.771 140.929C839.249 143.099 832.889 144.183 825.69 144.183Z" fill="white"/>
<path d="M931.826 43.1856C931.641 42.9659 931.347 42.8726 931.07 42.9434L923.577 44.8816C923.269 44.9611 922.947 44.8366 922.771 44.5735L919.515 39.6904C919.476 39.6332 919.431 39.5811 919.378 39.5379L916.305 36.925C916.221 36.8542 916.156 36.7658 916.109 36.6654L912.271 28.1899C912.254 28.1467 912.231 28.107 912.204 28.0705L909.955 24.8589C909.95 24.8503 909.945 24.8434 909.94 24.8365L906.832 20.0189C906.728 19.8561 906.688 19.6589 906.728 19.4685L906.82 19.0115C906.863 18.7936 907.002 18.6066 907.197 18.5012C907.394 18.3957 907.626 18.3837 907.832 18.4683L908.308 18.6655C908.575 18.7764 908.882 18.721 909.095 18.5237C909.307 18.3281 909.386 18.0271 909.3 17.7519L908.765 16.0733C908.685 15.8208 908.478 15.6303 908.218 15.5733L902.906 14.3914C902.793 14.3673 902.674 14.3689 902.563 14.3967L898.334 15.4538C898.21 15.4849 898.078 15.4831 897.953 15.4469L894.254 14.4121C894.117 14.3742 893.993 14.2981 893.899 14.1906L892.94 13.1108C892.807 12.9619 892.62 12.872 892.421 12.8633L890.125 12.7475C889.744 12.7302 889.409 13.0018 889.353 13.3807L889.077 15.2289C889.045 15.4297 888.936 15.6096 888.772 15.7256C888.606 15.8415 888.4 15.8865 888.203 15.8502L883.325 14.9279C883.058 14.876 882.842 14.6873 882.757 14.4312L882.403 13.3669C882.304 13.0728 882.032 12.8702 881.723 12.8599L877.841 12.7266C877.615 12.7197 877.405 12.609 877.27 12.429L876.012 10.7504C875.886 10.5825 875.837 10.3679 875.877 10.1622C875.917 9.95449 876.043 9.77617 876.223 9.66729L876.554 9.46827C876.893 9.2657 877.012 8.83313 876.83 8.48361L875.596 6.12709C875.449 5.85015 875.145 5.69433 874.833 5.7393L860.36 7.78318C860.299 7.79009 860.241 7.80744 860.184 7.82993L855.956 9.55171C855.88 9.58445 855.798 9.60181 855.715 9.60536L853.006 9.74718C852.824 9.75763 852.655 9.832 852.526 9.95843L847.491 14.8399C847.377 14.9508 847.3 15.0942 847.275 15.25L846.877 17.6328C846.844 17.8422 846.721 18.0257 846.543 18.1399L842.066 20.9743C841.96 21.04 841.872 21.1335 841.813 21.2424L837.745 28.5986C837.678 28.7197 837.645 28.8546 837.652 28.9931L837.966 35.7451C837.968 35.8038 837.965 35.861 837.953 35.9182L837.38 38.9275C837.338 39.1472 837.399 39.3756 837.543 39.5488L848.494 52.5338C848.676 52.7484 848.963 52.8417 849.238 52.7778L854.089 51.5994C854.163 51.5821 854.239 51.5752 854.317 51.5803L861.109 52.0545C861.202 52.0632 861.298 52.0494 861.389 52.0218L866.44 50.3864C866.681 50.3087 866.944 50.3588 867.139 50.5177L870.201 53.0236C870.349 53.1429 870.541 53.2035 870.734 53.1881L873.563 52.951C873.771 52.9354 873.975 53.0044 874.127 53.1465C874.281 53.2865 874.369 53.4838 874.369 53.6932V56.436C874.369 56.4738 874.366 56.5103 874.361 56.5468L873.924 59.4487C873.895 59.6529 873.95 59.8639 874.082 60.0249L877.219 63.9079C877.285 63.9908 877.333 64.0878 877.361 64.19L879.889 73.9912C879.926 74.1277 879.921 74.2715 879.877 74.4047L877.571 81.636C877.515 81.8092 877.526 81.9977 877.598 82.1638L881.539 90.9873C881.568 91.053 881.589 91.1222 881.597 91.1968L882.374 97.2669C882.391 97.4071 882.452 97.5387 882.54 97.6478L886.33 102.194C886.441 102.329 886.501 102.495 886.501 102.67V105.981C886.501 106.194 886.593 106.398 886.756 106.54C886.915 106.682 887.129 106.745 887.342 106.717L894.044 105.845L899.671 105.063C899.848 105.037 900.011 104.95 900.128 104.813L908.671 95.007C908.754 94.9104 908.813 94.7908 908.837 94.6646L909.232 92.7006C909.27 92.5085 909.384 92.3373 909.549 92.2282L910.447 91.6313C910.648 91.4944 910.772 91.2713 910.777 91.0291L910.925 84.9588C910.93 84.7876 910.994 84.6215 911.106 84.4917L912.921 82.3977C913.015 82.2904 913.134 82.2143 913.271 82.1729L916.957 81.0791C917.273 80.9858 917.49 80.6969 917.49 80.3661V72.9807C917.49 72.9184 917.483 72.8576 917.467 72.7989L915.671 65.763C915.584 65.4238 915.745 65.0709 916.059 64.9133L916.668 64.6089C916.778 64.5535 916.872 64.4738 916.941 64.3752L922.291 56.822C922.367 56.7131 922.473 56.6283 922.592 56.5729L926.906 54.64C927.071 54.5657 927.204 54.4323 927.278 54.268L931.933 43.9703C932.051 43.7083 932.011 43.4038 931.826 43.1856Z" fill="#F7B2AD"/>
<path d="M929.974 75.9993C929.858 75.7796 929.641 75.6308 929.396 75.6048C929.15 75.5772 928.906 75.674 928.747 75.8644L925.144 80.1316C925.071 80.2198 924.979 80.2892 924.874 80.3342L922.855 81.2185C922.583 81.336 922.41 81.6043 922.41 81.9004V86.0757C922.41 86.138 922.401 86.1984 922.386 86.2574L921.804 88.5849C921.771 88.7198 921.777 88.8601 921.818 88.9932L923.159 93.1496C923.221 93.3417 923.357 93.4976 923.536 93.5875C923.715 93.6759 923.924 93.6897 924.111 93.6238L926.8 92.6875C927.028 92.6078 927.203 92.4245 927.272 92.1943L930.442 81.2494L931.178 78.7489C931.231 78.5655 931.212 78.3665 931.124 78.1951L929.974 75.9993Z" fill="#F7B2AD"/>
</svg>
