<svg width="30" height="25" viewBox="0 0 30 25" fill="none" xmlns="http://www.w3.org/2000/svg">
<path d="M30.0002 3.55511C29.1636 4.77114 28.1761 5.79747 26.9978 6.6718C27.0355 6.93811 27.0355 7.20442 27.0355 7.46951C27.0355 15.3737 21.0307 24.494 10.0111 24.494C6.62927 24.494 3.47489 23.4676 0.814209 21.7956C1.27022 21.8333 1.76393 21.9099 2.25885 21.9099C5.07154 21.9099 7.61669 20.9213 9.66935 19.3258C7.00867 19.2881 4.84292 17.5018 4.0829 15.1451C4.42461 15.2217 4.84292 15.2594 5.22354 15.2594C5.75616 15.2594 6.32526 15.1828 6.82019 15.0308C4.04642 14.4982 1.99376 12.105 1.99376 9.21695V9.14034C2.83039 9.55866 3.7035 9.82497 4.69213 9.86266C3.09548 8.76094 2.03146 6.93689 2.03146 4.88423C2.03146 3.78251 2.33546 2.75618 2.82917 1.84415C5.79386 5.45455 10.202 7.88661 15.1792 8.11401C15.1026 7.6957 15.0272 7.20199 15.0272 6.74597C15.0272 3.43958 17.6879 0.741211 20.993 0.741211C22.7417 0.741211 24.2994 1.50123 25.4012 2.67957C26.7692 2.41325 28.0229 1.88185 29.1636 1.19722C28.7452 2.60296 27.7955 3.81899 26.5795 4.54131C27.7955 4.38931 28.8972 4.0476 30.0002 3.55268V3.55511Z" fill="white"/>
</svg>
