<svg width="30" height="30" viewBox="0 0 30 30" fill="none" xmlns="http://www.w3.org/2000/svg">
<path d="M19.721 2.43646H9.51338C5.07953 2.43646 2.43628 5.07972 2.43628 9.51356V19.709C2.43628 24.155 5.07953 26.7983 9.51338 26.7983H19.7088C24.1426 26.7983 26.7859 24.155 26.7859 19.7212V9.51356C26.7981 5.07972 24.1548 2.43646 19.721 2.43646ZM14.6172 19.3435C12.0105 19.3435 9.89099 17.2241 9.89099 14.6174C9.89099 12.0106 12.0105 9.89117 14.6172 9.89117C17.2239 9.89117 19.3434 12.0106 19.3434 14.6174C19.3434 17.2241 17.2239 19.3435 14.6172 19.3435ZM21.8283 8.38074C21.7674 8.52691 21.6821 8.6609 21.5725 8.78271C21.4507 8.89234 21.3167 8.9776 21.1705 9.03851C21.0243 9.09941 20.866 9.13595 20.7076 9.13595C20.3787 9.13595 20.0742 9.01415 19.8428 8.78271C19.7332 8.6609 19.6479 8.52691 19.587 8.38074C19.5261 8.23457 19.4895 8.07622 19.4895 7.91786C19.4895 7.75951 19.5261 7.60116 19.587 7.45499C19.6479 7.29664 19.7332 7.17483 19.8428 7.05302C20.1229 6.77286 20.5493 6.63887 20.9391 6.72414C21.0243 6.73632 21.0974 6.76068 21.1705 6.79722C21.2436 6.82158 21.3167 6.85813 21.3898 6.90685C21.4507 6.94339 21.5116 7.0043 21.5725 7.05302C21.6821 7.17483 21.7674 7.29664 21.8283 7.45499C21.8892 7.60116 21.9257 7.75951 21.9257 7.91786C21.9257 8.07622 21.8892 8.23457 21.8283 8.38074Z" fill="white"/>
</svg>
