<svg width="749" height="148" viewBox="0 0 749 148" fill="none" xmlns="http://www.w3.org/2000/svg">
<path d="M37.2631 118.25C31.0943 118.25 25.634 117.125 20.8823 114.874C16.1307 112.623 12.3377 109.372 9.50334 105.121C6.75237 100.786 5.25185 95.6175 5.00176 89.6154C4.91839 88.2816 4.87671 86.6143 4.87671 84.6136C4.87671 82.5296 4.91839 80.8206 5.00176 79.4868C5.25185 73.4013 6.75237 68.2329 9.50334 63.9814C12.2543 59.6465 16.0056 56.3537 20.7573 54.1029C25.5923 51.8521 31.0943 50.7267 37.2631 50.7267C43.0151 50.7267 47.9335 51.5603 52.0183 53.2276C56.103 54.8115 59.4376 56.8122 62.0218 59.2297C64.606 61.6472 66.5234 64.1481 67.7738 66.7323C69.1076 69.2332 69.8162 71.4423 69.8996 73.3597C69.9829 74.1933 69.6912 74.9436 69.0243 75.6105C68.3574 76.194 67.6071 76.4858 66.7735 76.4858H50.8929C49.9759 76.4858 49.2673 76.2774 48.7671 75.8605C48.267 75.4437 47.8085 74.8185 47.3917 73.9849C46.3913 71.4006 45.0992 69.5667 43.5153 68.483C42.0148 67.3992 40.0557 66.8574 37.6382 66.8574C34.3037 66.8574 31.7195 67.9411 29.8855 70.1085C28.1349 72.276 27.1762 75.6105 27.0095 80.112C26.9261 83.4465 26.9261 86.4059 27.0095 88.9902C27.1762 93.5751 28.1349 96.9096 29.8855 98.9937C31.7195 101.078 34.3037 102.12 37.6382 102.12C40.2225 102.12 42.2649 101.578 43.7654 100.494C45.2659 99.4105 46.4747 97.5765 47.3917 94.9923C47.8085 94.1586 48.267 93.5334 48.7671 93.1166C49.2673 92.6998 49.9759 92.4914 50.8929 92.4914H66.7735C67.6071 92.4914 68.3574 92.8248 69.0243 93.4917C69.6912 94.0753 69.9829 94.7839 69.8996 95.6175C69.8162 97.0347 69.3994 98.7019 68.6491 100.619C67.8989 102.453 66.7318 104.412 65.1479 106.496C63.564 108.58 61.4799 110.539 58.8957 112.373C56.3948 114.124 53.3521 115.541 49.7675 116.625C46.1829 117.709 42.0148 118.25 37.2631 118.25ZM84.2601 117C83.3431 117 82.5928 116.708 82.0093 116.125C81.4257 115.541 81.134 114.791 81.134 113.874V31.3449C81.134 30.4279 81.4257 29.6777 82.0093 29.0941C82.5928 28.5106 83.3431 28.2188 84.2601 28.2188H100.266C101.183 28.2188 101.933 28.5106 102.516 29.0941C103.1 29.6777 103.392 30.4279 103.392 31.3449V59.2297C105.643 56.6455 108.394 54.6031 111.645 53.1025C114.979 51.5187 118.814 50.7267 123.149 50.7267C127.984 50.7267 132.277 51.8104 136.028 53.9779C139.863 56.1453 142.864 59.3547 145.031 63.6062C147.199 67.7744 148.283 72.9012 148.283 78.9866V113.874C148.283 114.791 147.991 115.541 147.407 116.125C146.824 116.708 146.073 117 145.156 117H129.026C128.192 117 127.442 116.708 126.775 116.125C126.191 115.541 125.9 114.791 125.9 113.874V79.7369C125.9 75.8189 124.941 72.8178 123.024 70.7337C121.19 68.5663 118.439 67.4826 114.771 67.4826C111.353 67.4826 108.602 68.5663 106.518 70.7337C104.434 72.8178 103.392 75.8189 103.392 79.7369V113.874C103.392 114.791 103.1 115.541 102.516 116.125C101.933 116.708 101.183 117 100.266 117H84.2601ZM192.472 118.25C182.635 118.25 174.799 115.583 168.964 110.248C163.128 104.912 160.086 96.993 159.835 86.4893C159.835 85.9057 159.835 85.1555 159.835 84.2385C159.835 83.3215 159.835 82.6129 159.835 82.1127C160.086 75.5271 161.544 69.9001 164.212 65.2318C166.963 60.4801 170.714 56.8955 175.466 54.478C180.301 51.9772 185.928 50.7267 192.347 50.7267C199.683 50.7267 205.727 52.1856 210.478 55.1033C215.313 58.0209 218.94 61.9807 221.357 66.9824C223.775 71.9842 224.983 77.6945 224.983 84.1134V87.1145C224.983 88.0315 224.65 88.7818 223.983 89.3653C223.399 89.9488 222.691 90.2406 221.857 90.2406H181.843C181.843 90.324 181.843 90.449 181.843 90.6157C181.843 90.7825 181.843 90.9492 181.843 91.1159C181.927 93.5334 182.343 95.7425 183.094 97.7432C183.844 99.7439 185.011 101.328 186.595 102.495C188.179 103.662 190.096 104.246 192.347 104.246C194.014 104.246 195.39 103.995 196.473 103.495C197.64 102.912 198.599 102.286 199.349 101.62C200.1 100.869 200.683 100.244 201.1 99.7439C201.85 98.9103 202.434 98.4101 202.851 98.2434C203.351 97.9933 204.101 97.8683 205.101 97.8683H220.607C221.44 97.8683 222.107 98.1184 222.607 98.6185C223.191 99.0354 223.441 99.6606 223.358 100.494C223.274 101.911 222.566 103.62 221.232 105.621C219.898 107.622 217.939 109.622 215.355 111.623C212.854 113.54 209.686 115.124 205.852 116.375C202.017 117.625 197.557 118.25 192.472 118.25ZM181.843 77.8612H202.976V77.6112C202.976 74.9436 202.559 72.6094 201.725 70.6087C200.975 68.608 199.766 67.0658 198.099 65.9821C196.515 64.8984 194.598 64.3565 192.347 64.3565C190.096 64.3565 188.179 64.8984 186.595 65.9821C185.094 67.0658 183.927 68.608 183.094 70.6087C182.26 72.6094 181.843 74.9436 181.843 77.6112V77.8612ZM266.592 118.25C260.423 118.25 254.963 117.125 250.211 114.874C245.459 112.623 241.666 109.372 238.832 105.121C236.081 100.786 234.58 95.6175 234.33 89.6154C234.247 88.2816 234.205 86.6143 234.205 84.6136C234.205 82.5296 234.247 80.8206 234.33 79.4868C234.58 73.4013 236.081 68.2329 238.832 63.9814C241.583 59.6465 245.334 56.3537 250.086 54.1029C254.921 51.8521 260.423 50.7267 266.592 50.7267C272.344 50.7267 277.262 51.5603 281.347 53.2276C285.432 54.8115 288.766 56.8122 291.35 59.2297C293.935 61.6472 295.852 64.1481 297.102 66.7323C298.436 69.2332 299.145 71.4423 299.228 73.3597C299.312 74.1933 299.02 74.9436 298.353 75.6105C297.686 76.194 296.936 76.4858 296.102 76.4858H280.221C279.305 76.4858 278.596 76.2774 278.096 75.8605C277.596 75.4437 277.137 74.8185 276.72 73.9849C275.72 71.4006 274.428 69.5667 272.844 68.483C271.343 67.3992 269.384 66.8574 266.967 66.8574C263.632 66.8574 261.048 67.9411 259.214 70.1085C257.463 72.276 256.505 75.6105 256.338 80.112C256.255 83.4465 256.255 86.4059 256.338 88.9902C256.505 93.5751 257.463 96.9096 259.214 98.9937C261.048 101.078 263.632 102.12 266.967 102.12C269.551 102.12 271.593 101.578 273.094 100.494C274.595 99.4105 275.803 97.5765 276.72 94.9923C277.137 94.1586 277.596 93.5334 278.096 93.1166C278.596 92.6998 279.305 92.4914 280.221 92.4914H296.102C296.936 92.4914 297.686 92.8248 298.353 93.4917C299.02 94.0753 299.312 94.7839 299.228 95.6175C299.145 97.0347 298.728 98.7019 297.978 100.619C297.227 102.453 296.06 104.412 294.477 106.496C292.893 108.58 290.809 110.539 288.224 112.373C285.723 114.124 282.681 115.541 279.096 116.625C275.512 117.709 271.343 118.25 266.592 118.25ZM313.589 117C312.672 117 311.921 116.708 311.338 116.125C310.754 115.541 310.463 114.791 310.463 113.874V31.3449C310.463 30.4279 310.754 29.6777 311.338 29.0941C311.921 28.5106 312.672 28.2188 313.589 28.2188H328.094C328.927 28.2188 329.636 28.5106 330.22 29.0941C330.886 29.6777 331.22 30.4279 331.22 31.3449V73.2346L348.601 54.1029C349.101 53.5194 349.643 53.0192 350.227 52.6024C350.81 52.1856 351.644 51.9772 352.727 51.9772H369.483C370.234 51.9772 370.859 52.2689 371.359 52.8525C371.943 53.3526 372.234 53.9779 372.234 54.7281C372.234 55.0616 372.151 55.4367 371.984 55.8535C371.817 56.2703 371.567 56.6038 371.234 56.8539L348.726 81.1124L374.36 112.248C375.027 112.915 375.36 113.582 375.36 114.249C375.36 114.999 375.069 115.666 374.485 116.25C373.985 116.75 373.318 117 372.484 117H355.353C354.103 117 353.186 116.792 352.602 116.375C352.019 115.875 351.477 115.374 350.977 114.874L331.22 91.1159V113.874C331.22 114.791 330.886 115.541 330.22 116.125C329.636 116.708 328.927 117 328.094 117H313.589ZM386.612 117C385.695 117 384.945 116.708 384.362 116.125C383.778 115.541 383.486 114.791 383.486 113.874V55.1033C383.486 54.1863 383.778 53.436 384.362 52.8525C384.945 52.2689 385.695 51.9772 386.612 51.9772H400.242C401.159 51.9772 401.909 52.2689 402.493 52.8525C403.077 53.436 403.368 54.1863 403.368 55.1033V59.3547C405.036 57.104 407.37 55.1449 410.371 53.4777C413.372 51.7271 416.915 50.8101 420.999 50.7267C430.586 50.56 437.172 54.1863 440.756 61.6055C442.674 58.4378 445.425 55.8535 449.009 53.8528C452.594 51.7687 456.512 50.7267 460.763 50.7267C465.098 50.7267 468.975 51.7271 472.393 53.7278C475.894 55.6451 478.686 58.6462 480.77 62.7309C482.855 66.7323 483.897 71.9425 483.897 78.3614V113.874C483.897 114.791 483.563 115.541 482.896 116.125C482.313 116.708 481.604 117 480.77 117H466.265C465.348 117 464.556 116.708 463.89 116.125C463.306 115.541 463.014 114.791 463.014 113.874V79.2367C463.014 76.319 462.597 74.0266 461.764 72.3593C460.93 70.6087 459.805 69.3583 458.388 68.608C456.97 67.8577 455.345 67.4826 453.511 67.4826C452.01 67.4826 450.51 67.8577 449.009 68.608C447.592 69.3583 446.425 70.6087 445.508 72.3593C444.674 74.0266 444.258 76.319 444.258 79.2367V113.874C444.258 114.791 443.966 115.541 443.382 116.125C442.799 116.708 442.049 117 441.132 117H426.626C425.709 117 424.959 116.708 424.376 116.125C423.792 115.541 423.5 114.791 423.5 113.874V79.2367C423.5 76.319 423.042 74.0266 422.125 72.3593C421.208 70.6087 420.041 69.3583 418.624 68.608C417.206 67.8577 415.623 67.4826 413.872 67.4826C412.371 67.4826 410.871 67.8577 409.37 68.608C407.953 69.3583 406.786 70.6087 405.869 72.3593C405.036 74.0266 404.619 76.2774 404.619 79.1117V113.874C404.619 114.791 404.285 115.541 403.618 116.125C403.035 116.708 402.285 117 401.368 117H386.612ZM517.413 118.25C512.912 118.25 508.869 117.417 505.284 115.75C501.783 113.999 498.99 111.665 496.906 108.747C494.822 105.829 493.78 102.537 493.78 98.8686C493.78 92.9499 496.197 88.2816 501.032 84.8637C505.868 81.3625 512.286 78.9866 520.289 77.7362L535.92 75.3604V73.6098C535.92 70.6087 535.295 68.3162 534.044 66.7323C532.794 65.1484 530.501 64.3565 527.167 64.3565C524.832 64.3565 522.915 64.815 521.415 65.732C519.997 66.649 518.872 67.8994 518.038 69.4833C517.288 70.567 516.246 71.1089 514.912 71.1089H500.907C499.99 71.1089 499.282 70.8588 498.782 70.3586C498.282 69.7751 498.073 69.1082 498.156 68.3579C498.156 66.8574 498.698 65.1484 499.782 63.2311C500.949 61.2304 502.7 59.2714 505.034 57.354C507.368 55.4367 510.369 53.8528 514.037 52.6024C517.705 51.3519 522.123 50.7267 527.292 50.7267C532.71 50.7267 537.337 51.3519 541.172 52.6024C545.006 53.8528 548.091 55.6034 550.425 57.8542C552.842 60.105 554.635 62.7726 555.802 65.857C556.969 68.8581 557.552 72.1926 557.552 75.8605V113.874C557.552 114.791 557.219 115.541 556.552 116.125C555.968 116.708 555.26 117 554.426 117H539.921C539.004 117 538.254 116.708 537.67 116.125C537.087 115.541 536.795 114.791 536.795 113.874V109.497C535.711 111.081 534.252 112.54 532.418 113.874C530.585 115.208 528.417 116.25 525.916 117C523.499 117.834 520.664 118.25 517.413 118.25ZM523.29 103.995C525.708 103.995 527.875 103.495 529.793 102.495C531.793 101.411 533.335 99.7856 534.419 97.6182C535.586 95.3674 536.17 92.5748 536.17 89.2402V87.4896L525.541 89.3653C521.623 90.0322 518.747 91.0742 516.913 92.4914C515.162 93.8252 514.287 95.4091 514.287 97.2431C514.287 98.6602 514.704 99.869 515.538 100.869C516.371 101.87 517.455 102.662 518.789 103.245C520.123 103.745 521.623 103.995 523.29 103.995ZM604.436 117C599.101 117 594.474 116.166 590.556 114.499C586.721 112.749 583.762 110.081 581.678 106.496C579.594 102.828 578.552 98.1184 578.552 92.3663V68.3579H568.798C567.881 68.3579 567.09 68.0661 566.423 67.4826C565.839 66.8991 565.547 66.1488 565.547 65.2318V55.1033C565.547 54.1863 565.839 53.436 566.423 52.8525C567.09 52.2689 567.881 51.9772 568.798 51.9772H578.552V31.3449C578.552 30.4279 578.844 29.6777 579.427 29.0941C580.094 28.5106 580.844 28.2188 581.678 28.2188H596.183C597.1 28.2188 597.85 28.5106 598.434 29.0941C599.017 29.6777 599.309 30.4279 599.309 31.3449V51.9772H614.94C615.857 51.9772 616.607 52.2689 617.19 52.8525C617.774 53.436 618.066 54.1863 618.066 55.1033V65.2318C618.066 66.1488 617.774 66.8991 617.19 67.4826C616.607 68.0661 615.857 68.3579 614.94 68.3579H599.309V90.6157C599.309 93.4501 599.851 95.7009 600.935 97.3681C602.018 99.0354 603.852 99.869 606.437 99.869H616.065C616.982 99.869 617.732 100.161 618.316 100.744C618.899 101.328 619.191 102.078 619.191 102.995V113.874C619.191 114.791 618.899 115.541 618.316 116.125C617.732 116.708 616.982 117 616.065 117H604.436ZM659.555 118.25C649.718 118.25 641.882 115.583 636.047 110.248C630.211 104.912 627.169 96.993 626.918 86.4893C626.918 85.9057 626.918 85.1555 626.918 84.2385C626.918 83.3215 626.918 82.6129 626.918 82.1127C627.169 75.5271 628.627 69.9001 631.295 65.2318C634.046 60.4801 637.797 56.8955 642.549 54.478C647.384 51.9772 653.011 50.7267 659.43 50.7267C666.766 50.7267 672.81 52.1856 677.561 55.1033C682.396 58.0209 686.023 61.9807 688.44 66.9824C690.858 71.9842 692.066 77.6945 692.066 84.1134V87.1145C692.066 88.0315 691.733 88.7818 691.066 89.3653C690.482 89.9488 689.774 90.2406 688.94 90.2406H648.926C648.926 90.324 648.926 90.449 648.926 90.6157C648.926 90.7825 648.926 90.9492 648.926 91.1159C649.01 93.5334 649.426 95.7425 650.177 97.7432C650.927 99.7439 652.094 101.328 653.678 102.495C655.262 103.662 657.179 104.246 659.43 104.246C661.097 104.246 662.473 103.995 663.556 103.495C664.723 102.912 665.682 102.286 666.432 101.62C667.183 100.869 667.766 100.244 668.183 99.7439C668.933 98.9103 669.517 98.4101 669.934 98.2434C670.434 97.9933 671.184 97.8683 672.184 97.8683H687.69C688.523 97.8683 689.19 98.1184 689.691 98.6185C690.274 99.0354 690.524 99.6606 690.441 100.494C690.357 101.911 689.649 103.62 688.315 105.621C686.981 107.622 685.022 109.622 682.438 111.623C679.937 113.54 676.769 115.124 672.935 116.375C669.1 117.625 664.64 118.25 659.555 118.25ZM648.926 77.8612H670.059V77.6112C670.059 74.9436 669.642 72.6094 668.808 70.6087C668.058 68.608 666.849 67.0658 665.182 65.9821C663.598 64.8984 661.681 64.3565 659.43 64.3565C657.179 64.3565 655.262 64.8984 653.678 65.9821C652.177 67.0658 651.01 68.608 650.177 70.6087C649.343 72.6094 648.926 74.9436 648.926 77.6112V77.8612Z" fill="white"/>
<path d="M748.853 35.6626C748.697 35.4768 748.448 35.398 748.214 35.4578L741.88 37.0963C741.619 37.1635 741.347 37.0583 741.198 36.8358L738.445 32.7078C738.413 32.6595 738.375 32.6154 738.33 32.5789L735.732 30.37C735.661 30.3101 735.606 30.2354 735.566 30.1506L732.322 22.9856C732.307 22.9491 732.288 22.9155 732.265 22.8847L730.364 20.1697C730.36 20.1624 730.355 20.1565 730.351 20.1507L727.724 16.078C727.636 15.9405 727.602 15.7737 727.636 15.6128L727.713 15.2265C727.75 15.0422 727.867 14.8841 728.032 14.7951C728.199 14.7059 728.395 14.6957 728.569 14.7672L728.971 14.934C729.197 15.0277 729.457 14.9808 729.637 14.8141C729.816 14.6487 729.883 14.3942 729.81 14.1616L729.358 12.7426C729.29 12.5291 729.115 12.3681 728.895 12.3199L724.405 11.3207C724.31 11.3004 724.208 11.3017 724.115 11.3252L720.54 12.2188C720.434 12.2452 720.323 12.2437 720.218 12.213L717.09 11.3382C716.975 11.3062 716.87 11.2418 716.791 11.151L715.98 10.2382C715.867 10.1123 715.709 10.0363 715.541 10.0289L713.6 9.93104C713.278 9.91637 712.995 10.146 712.948 10.4663L712.714 12.0287C712.687 12.1985 712.595 12.3506 712.456 12.4486C712.316 12.5466 712.142 12.5847 711.975 12.554L707.851 11.7743C707.626 11.7304 707.443 11.5708 707.372 11.3544L707.072 10.4546C706.988 10.206 706.759 10.0348 706.497 10.0261L703.216 9.91336C703.024 9.90753 702.847 9.81398 702.733 9.66174L701.669 8.24272C701.563 8.10081 701.522 7.91939 701.555 7.74547C701.589 7.56989 701.696 7.41915 701.848 7.3271L702.127 7.15885C702.414 6.9876 702.515 6.62193 702.361 6.32645L701.318 4.33431C701.193 4.1002 700.936 3.96847 700.673 4.00648L688.438 5.73433C688.386 5.74016 688.336 5.75484 688.288 5.77385L684.715 7.22939C684.65 7.25707 684.581 7.27174 684.511 7.27474L682.22 7.39464C682.067 7.40347 681.924 7.46634 681.815 7.57322L677.558 11.6999C677.462 11.7936 677.397 11.9148 677.375 12.0466L677.039 14.0609C677.011 14.238 676.907 14.393 676.757 14.4896L672.972 16.8858C672.883 16.9413 672.808 17.0203 672.759 17.1124L669.32 23.3311C669.263 23.4335 669.235 23.5475 669.241 23.6646L669.507 29.3725C669.508 29.4222 669.505 29.4706 669.495 29.5189L669.011 32.0628C668.976 32.2486 669.027 32.4417 669.148 32.5881L678.406 43.5653C678.56 43.7467 678.803 43.8256 679.036 43.7715L683.136 42.7754C683.199 42.7607 683.263 42.7549 683.329 42.7592L689.071 43.1601C689.15 43.1674 689.23 43.1557 689.308 43.1324L693.578 41.7499C693.781 41.6842 694.003 41.7265 694.169 41.8609L696.756 43.9793C696.882 44.0802 697.045 44.1314 697.207 44.1184L699.599 43.9179C699.774 43.9048 699.947 43.9631 700.076 44.0832C700.206 44.2016 700.28 44.3683 700.28 44.5454V46.8641C700.28 46.8961 700.277 46.9269 700.273 46.9578L699.904 49.411C699.88 49.5835 699.926 49.762 700.038 49.898L702.69 53.1806C702.746 53.2507 702.786 53.3327 702.81 53.4191L704.947 61.7048C704.978 61.8202 704.973 61.9417 704.937 62.0543L702.987 68.1674C702.94 68.3138 702.949 68.4733 703.01 68.6137L706.341 76.0728C706.366 76.1283 706.384 76.1868 706.391 76.2499L707.048 81.3814C707.062 81.4999 707.113 81.6112 707.188 81.7034L710.392 85.5462C710.485 85.6605 710.536 85.8007 710.536 85.9486V88.7485C710.536 88.9284 710.614 89.101 710.752 89.2209C710.886 89.3409 711.067 89.3936 711.247 89.3701L716.913 88.6329L721.67 87.9716C721.819 87.9498 721.957 87.8766 722.056 87.761L729.279 79.471C729.349 79.3892 729.399 79.2882 729.419 79.1815L729.753 77.5212C729.785 77.3588 729.881 77.214 730.02 77.1218L730.78 76.6172C730.949 76.5015 731.054 76.3129 731.059 76.1081L731.183 70.9765C731.188 70.8317 731.242 70.6913 731.337 70.5816L732.871 68.8114C732.95 68.7207 733.051 68.6563 733.167 68.6213L736.283 67.6967C736.55 67.6178 736.733 67.3736 736.733 67.0939V60.8505C736.733 60.7978 736.727 60.7465 736.714 60.6968L735.196 54.7489C735.123 54.4621 735.259 54.1638 735.523 54.0305L736.038 53.7733C736.132 53.7264 736.211 53.659 736.27 53.5757L740.793 47.1904C740.857 47.0983 740.946 47.0266 741.047 46.9798L744.694 45.3458C744.833 45.2829 744.946 45.1702 745.008 45.0313L748.944 36.3259C749.043 36.1045 749.01 35.847 748.853 35.6626Z" fill="#F7B2AD"/>
<path d="M747.287 63.4019C747.189 63.2161 747.006 63.0904 746.798 63.0684C746.59 63.045 746.384 63.1269 746.249 63.2878L743.204 66.8952C743.142 66.9698 743.065 67.0285 742.976 67.0665L741.269 67.814C741.039 67.9134 740.893 68.1402 740.893 68.3905V71.9202C740.893 71.9729 740.885 72.0239 740.872 72.0738L740.38 74.0414C740.353 74.1554 740.357 74.274 740.392 74.3866L741.526 77.9003C741.579 78.0627 741.693 78.1944 741.845 78.2705C741.995 78.3452 742.172 78.3568 742.331 78.3011L744.604 77.5096C744.797 77.4422 744.945 77.2873 745.003 77.0927L747.683 67.8402L748.305 65.7263C748.35 65.5713 748.334 65.403 748.259 65.2581L747.287 63.4019Z" fill="#F7B2AD"/>
</svg>
