<svg width="156" height="22" viewBox="0 0 156 22" fill="none" xmlns="http://www.w3.org/2000/svg">
<path d="M7.4478 21.2835C6.04929 21.2835 4.81141 21.0283 3.73417 20.5181C2.65693 20.0078 1.79704 19.2708 1.15447 18.3069C0.53081 17.3242 0.19063 16.1524 0.133933 14.7917C0.115034 14.4893 0.105585 14.1114 0.105585 13.6578C0.105585 13.1853 0.115034 12.7979 0.133933 12.4955C0.19063 11.1159 0.53081 9.94415 1.15447 8.98031C1.77814 7.99756 2.62859 7.25106 3.70582 6.74079C4.80196 6.23052 6.04929 5.97538 7.4478 5.97538C8.75183 5.97538 9.86686 6.16437 10.7929 6.54235C11.719 6.90143 12.4749 7.355 13.0608 7.90307C13.6466 8.45114 14.0813 9.0181 14.3648 9.60397C14.6672 10.1709 14.8278 10.6718 14.8467 11.1064C14.8656 11.2954 14.7995 11.4655 14.6483 11.6167C14.4971 11.749 14.327 11.8151 14.138 11.8151H10.5378C10.3299 11.8151 10.1692 11.7679 10.0558 11.6734C9.94246 11.5789 9.83851 11.4372 9.74402 11.2482C9.51723 10.6623 9.2243 10.2465 8.86522 10.0008C8.52504 9.75516 8.08092 9.63232 7.53285 9.63232C6.77689 9.63232 6.19103 9.878 5.77525 10.3694C5.37837 10.8607 5.16104 11.6167 5.12324 12.6372C5.10434 13.3932 5.10434 14.0641 5.12324 14.65C5.16104 15.6894 5.37837 16.4454 5.77525 16.9178C6.19103 17.3903 6.77689 17.6265 7.53285 17.6265C8.11871 17.6265 8.58174 17.5037 8.92192 17.258C9.2621 17.0123 9.53613 16.5966 9.74402 16.0107C9.83851 15.8217 9.94246 15.68 10.0558 15.5855C10.1692 15.491 10.3299 15.4437 10.5378 15.4437H14.138C14.327 15.4437 14.4971 15.5193 14.6483 15.6705C14.7995 15.8028 14.8656 15.9634 14.8467 16.1524C14.8278 16.4737 14.7333 16.8517 14.5632 17.2864C14.3931 17.7021 14.1286 18.1463 13.7695 18.6187C13.4104 19.0912 12.9379 19.5353 12.3521 19.9511C11.7851 20.348 11.0953 20.6693 10.2826 20.915C9.46998 21.1606 8.52504 21.2835 7.4478 21.2835ZM18.1023 21C17.8945 21 17.7244 20.9339 17.5921 20.8016C17.4598 20.6693 17.3936 20.4992 17.3936 20.2913V1.58139C17.3936 1.3735 17.4598 1.20341 17.5921 1.07112C17.7244 0.93883 17.8945 0.872684 18.1023 0.872684H21.7309C21.9388 0.872684 22.1089 0.93883 22.2412 1.07112C22.3735 1.20341 22.4396 1.3735 22.4396 1.58139V7.90307C22.9499 7.3172 23.5736 6.85418 24.3106 6.514C25.0666 6.15492 25.9359 5.97538 26.9187 5.97538C28.0148 5.97538 28.9881 6.22107 29.8386 6.71244C30.7079 7.20381 31.3883 7.93142 31.8796 8.89526C32.371 9.84021 32.6167 11.0025 32.6167 12.3821V20.2913C32.6167 20.4992 32.5505 20.6693 32.4183 20.8016C32.286 20.9339 32.1159 21 31.908 21H28.251C28.0621 21 27.892 20.9339 27.7408 20.8016C27.6085 20.6693 27.5423 20.4992 27.5423 20.2913V12.5522C27.5423 11.6639 27.325 10.9836 26.8903 10.5111C26.4746 10.0197 25.8509 9.77406 25.0193 9.77406C24.2445 9.77406 23.6208 10.0197 23.1484 10.5111C22.6759 10.9836 22.4396 11.6639 22.4396 12.5522V20.2913C22.4396 20.4992 22.3735 20.6693 22.2412 20.8016C22.1089 20.9339 21.9388 21 21.7309 21H18.1023ZM42.6347 21.2835C40.4047 21.2835 38.6282 20.6787 37.3052 19.4692C35.9823 18.2597 35.2925 16.4643 35.2358 14.083C35.2358 13.9507 35.2358 13.7806 35.2358 13.5727C35.2358 13.3648 35.2358 13.2042 35.2358 13.0908C35.2925 11.5978 35.6232 10.3221 36.228 9.26379C36.8517 8.18655 37.7021 7.3739 38.7794 6.82583C39.8755 6.25887 41.1512 5.97538 42.6064 5.97538C44.2695 5.97538 45.6397 6.30611 46.7169 6.96757C47.813 7.62904 48.6351 8.52673 49.1832 9.66067C49.7313 10.7946 50.0053 12.0892 50.0053 13.5444V14.2247C50.0053 14.4326 49.9297 14.6027 49.7785 14.735C49.6462 14.8673 49.4856 14.9335 49.2966 14.9335H40.2251C40.2251 14.9524 40.2251 14.9807 40.2251 15.0185C40.2251 15.0563 40.2251 15.0941 40.2251 15.1319C40.244 15.68 40.3385 16.1808 40.5086 16.6344C40.6787 17.0879 40.9433 17.447 41.3024 17.7116C41.6614 17.9762 42.0961 18.1085 42.6064 18.1085C42.9844 18.1085 43.2962 18.0518 43.5419 17.9384C43.8065 17.8061 44.0238 17.6643 44.1939 17.5132C44.364 17.3431 44.4963 17.2013 44.5908 17.0879C44.7609 16.8989 44.8931 16.7855 44.9876 16.7478C45.101 16.6911 45.2711 16.6627 45.4979 16.6627H49.0131C49.2021 16.6627 49.3533 16.7194 49.4667 16.8328C49.599 16.9273 49.6557 17.069 49.6368 17.258C49.6179 17.5793 49.4572 17.9667 49.1548 18.4203C48.8525 18.8739 48.4083 19.3274 47.8225 19.781C47.2555 20.2157 46.5373 20.5748 45.668 20.8583C44.7987 21.1417 43.7876 21.2835 42.6347 21.2835ZM40.2251 12.127H45.016V12.0703C45.016 11.4655 44.9215 10.9363 44.7325 10.4828C44.5624 10.0292 44.2884 9.67957 43.9104 9.43388C43.5513 9.18819 43.1167 9.06535 42.6064 9.06535C42.0961 9.06535 41.6614 9.18819 41.3024 9.43388C40.9622 9.67957 40.6976 10.0292 40.5086 10.4828C40.3196 10.9363 40.2251 11.4655 40.2251 12.0703V12.127ZM59.4382 21.2835C58.0397 21.2835 56.8018 21.0283 55.7246 20.5181C54.6473 20.0078 53.7874 19.2708 53.1449 18.3069C52.5212 17.3242 52.181 16.1524 52.1243 14.7917C52.1054 14.4893 52.096 14.1114 52.096 13.6578C52.096 13.1853 52.1054 12.7979 52.1243 12.4955C52.181 11.1159 52.5212 9.94415 53.1449 8.98031C53.7685 7.99756 54.619 7.25106 55.6962 6.74079C56.7924 6.23052 58.0397 5.97538 59.4382 5.97538C60.7422 5.97538 61.8573 6.16437 62.7833 6.54235C63.7093 6.90143 64.4653 7.355 65.0512 7.90307C65.637 8.45114 66.0717 9.0181 66.3552 9.60397C66.6576 10.1709 66.8182 10.6718 66.8371 11.1064C66.856 11.2954 66.7899 11.4655 66.6387 11.6167C66.4875 11.749 66.3174 11.8151 66.1284 11.8151H62.5282C62.3203 11.8151 62.1596 11.7679 62.0462 11.6734C61.9329 11.5789 61.8289 11.4372 61.7344 11.2482C61.5076 10.6623 61.2147 10.2465 60.8556 10.0008C60.5154 9.75516 60.0713 9.63232 59.5232 9.63232C58.7673 9.63232 58.1814 9.878 57.7656 10.3694C57.3688 10.8607 57.1514 11.6167 57.1136 12.6372C57.0947 13.3932 57.0947 14.0641 57.1136 14.65C57.1514 15.6894 57.3688 16.4454 57.7656 16.9178C58.1814 17.3903 58.7673 17.6265 59.5232 17.6265C60.1091 17.6265 60.5721 17.5037 60.9123 17.258C61.2525 17.0123 61.5265 16.5966 61.7344 16.0107C61.8289 15.8217 61.9329 15.68 62.0462 15.5855C62.1596 15.491 62.3203 15.4437 62.5282 15.4437H66.1284C66.3174 15.4437 66.4875 15.5193 66.6387 15.6705C66.7899 15.8028 66.856 15.9634 66.8371 16.1524C66.8182 16.4737 66.7237 16.8517 66.5536 17.2864C66.3835 17.7021 66.119 18.1463 65.7599 18.6187C65.4008 19.0912 64.9283 19.5353 64.3425 19.9511C63.7755 20.348 63.0857 20.6693 62.273 20.915C61.4604 21.1606 60.5154 21.2835 59.4382 21.2835ZM70.0927 21C69.8849 21 69.7148 20.9339 69.5825 20.8016C69.4502 20.6693 69.384 20.4992 69.384 20.2913V1.58139C69.384 1.3735 69.4502 1.20341 69.5825 1.07112C69.7148 0.93883 69.8849 0.872684 70.0927 0.872684H73.3812C73.5701 0.872684 73.7308 0.93883 73.8631 1.07112C74.0143 1.20341 74.0899 1.3735 74.0899 1.58139V11.0781L78.0303 6.74079C78.1437 6.6085 78.2665 6.4951 78.3988 6.40061C78.5311 6.30611 78.7201 6.25887 78.9658 6.25887H82.7645C82.9345 6.25887 83.0763 6.32501 83.1897 6.45731C83.322 6.5707 83.3881 6.71244 83.3881 6.88253C83.3881 6.95813 83.3692 7.04317 83.3314 7.13767C83.2936 7.23216 83.2369 7.30776 83.1613 7.36445L78.0586 12.864L83.87 19.9228C84.0212 20.074 84.0968 20.2251 84.0968 20.3763C84.0968 20.5464 84.0307 20.6976 83.8984 20.8299C83.785 20.9433 83.6338 21 83.4448 21H79.5611C79.2776 21 79.0697 20.9528 78.9374 20.8583C78.8051 20.7449 78.6823 20.6315 78.5689 20.5181L74.0899 15.1319V20.2913C74.0899 20.4992 74.0143 20.6693 73.8631 20.8016C73.7308 20.9339 73.5701 21 73.3812 21H70.0927ZM86.6477 21C86.4398 21 86.2697 20.9339 86.1375 20.8016C86.0052 20.6693 85.939 20.4992 85.939 20.2913V6.96757C85.939 6.75969 86.0052 6.5896 86.1375 6.45731C86.2697 6.32501 86.4398 6.25887 86.6477 6.25887H89.7377C89.9456 6.25887 90.1157 6.32501 90.248 6.45731C90.3803 6.5896 90.4464 6.75969 90.4464 6.96757V7.93142C90.8244 7.42115 91.3535 6.97702 92.0339 6.59905C92.7143 6.20217 93.5175 5.99428 94.4435 5.97538C96.6169 5.93759 98.1099 6.75969 98.9226 8.44169C99.3572 7.72353 99.9809 7.13767 100.794 6.68409C101.606 6.21162 102.494 5.97538 103.458 5.97538C104.441 5.97538 105.32 6.20217 106.095 6.65574C106.888 7.09042 107.522 7.77078 107.994 8.69682C108.466 9.60397 108.703 10.7852 108.703 12.2404V20.2913C108.703 20.4992 108.627 20.6693 108.476 20.8016C108.344 20.9339 108.183 21 107.994 21H104.706C104.498 21 104.318 20.9339 104.167 20.8016C104.035 20.6693 103.969 20.4992 103.969 20.2913V12.4388C103.969 11.7773 103.874 11.2576 103.685 10.8796C103.496 10.4828 103.241 10.1993 102.92 10.0292C102.598 9.8591 102.23 9.77406 101.814 9.77406C101.474 9.77406 101.134 9.8591 100.794 10.0292C100.472 10.1993 100.208 10.4828 99.9998 10.8796C99.8108 11.2576 99.7163 11.7773 99.7163 12.4388V20.2913C99.7163 20.4992 99.6502 20.6693 99.5179 20.8016C99.3856 20.9339 99.2155 21 99.0076 21H95.7192C95.5113 21 95.3412 20.9339 95.2089 20.8016C95.0766 20.6693 95.0105 20.4992 95.0105 20.2913V12.4388C95.0105 11.7773 94.9065 11.2576 94.6987 10.8796C94.4908 10.4828 94.2262 10.1993 93.9049 10.0292C93.5836 9.8591 93.2245 9.77406 92.8277 9.77406C92.4875 9.77406 92.1473 9.8591 91.8071 10.0292C91.4858 10.1993 91.2213 10.4828 91.0134 10.8796C90.8244 11.2576 90.7299 11.7679 90.7299 12.4105V20.2913C90.7299 20.4992 90.6543 20.6693 90.5031 20.8016C90.3708 20.9339 90.2007 21 89.9928 21H86.6477ZM116.301 21.2835C115.281 21.2835 114.364 21.0945 113.551 20.7165C112.758 20.3196 112.125 19.7905 111.652 19.129C111.18 18.4675 110.943 17.721 110.943 16.8895C110.943 15.5477 111.491 14.4893 112.588 13.7145C113.684 12.9207 115.139 12.3821 116.953 12.0986L120.497 11.56V11.1631C120.497 10.4828 120.355 9.96305 120.072 9.60397C119.788 9.24489 119.268 9.06535 118.512 9.06535C117.983 9.06535 117.549 9.1693 117.208 9.37718C116.887 9.58507 116.632 9.86855 116.443 10.2276C116.273 10.4733 116.037 10.5962 115.734 10.5962H112.559C112.351 10.5962 112.191 10.5395 112.077 10.4261C111.964 10.2938 111.917 10.1426 111.936 9.9725C111.936 9.63232 112.058 9.24489 112.304 8.81022C112.569 8.35664 112.966 7.91252 113.495 7.47785C114.024 7.04317 114.704 6.68409 115.536 6.40061C116.367 6.11712 117.369 5.97538 118.541 5.97538C119.769 5.97538 120.818 6.11712 121.687 6.40061C122.557 6.68409 123.256 7.08097 123.785 7.59124C124.333 8.10151 124.74 8.70627 125.004 9.40553C125.269 10.0859 125.401 10.8418 125.401 11.6734V20.2913C125.401 20.4992 125.325 20.6693 125.174 20.8016C125.042 20.9339 124.881 21 124.692 21H121.404C121.196 21 121.026 20.9339 120.894 20.8016C120.761 20.6693 120.695 20.4992 120.695 20.2913V19.2991C120.449 19.6582 120.119 19.9889 119.703 20.2913C119.287 20.5937 118.796 20.8299 118.229 21C117.681 21.189 117.038 21.2835 116.301 21.2835ZM117.634 18.0518C118.182 18.0518 118.673 17.9384 119.108 17.7116C119.561 17.4659 119.911 17.0974 120.157 16.606C120.421 16.0957 120.553 15.4626 120.553 14.7067V14.3098L118.144 14.735C117.256 14.8862 116.604 15.1224 116.188 15.4437C115.791 15.7461 115.592 16.1052 115.592 16.521C115.592 16.8422 115.687 17.1163 115.876 17.3431C116.065 17.5699 116.311 17.7494 116.613 17.8817C116.915 17.9951 117.256 18.0518 117.634 18.0518ZM136.03 21C134.82 21 133.771 20.811 132.883 20.433C132.014 20.0362 131.343 19.4314 130.87 18.6187C130.398 17.7872 130.162 16.7194 130.162 15.4154V9.9725H127.951C127.743 9.9725 127.563 9.90635 127.412 9.77406C127.28 9.64177 127.214 9.47168 127.214 9.26379V6.96757C127.214 6.75969 127.28 6.5896 127.412 6.45731C127.563 6.32501 127.743 6.25887 127.951 6.25887H130.162V1.58139C130.162 1.3735 130.228 1.20341 130.36 1.07112C130.511 0.93883 130.681 0.872684 130.87 0.872684H134.159C134.367 0.872684 134.537 0.93883 134.669 1.07112C134.801 1.20341 134.868 1.3735 134.868 1.58139V6.25887H138.411C138.619 6.25887 138.789 6.32501 138.921 6.45731C139.054 6.5896 139.12 6.75969 139.12 6.96757V9.26379C139.12 9.47168 139.054 9.64177 138.921 9.77406C138.789 9.90635 138.619 9.9725 138.411 9.9725H134.868V15.0185C134.868 15.6611 134.99 16.1713 135.236 16.5493C135.482 16.9273 135.898 17.1163 136.483 17.1163H138.666C138.874 17.1163 139.044 17.1824 139.177 17.3147C139.309 17.447 139.375 17.6171 139.375 17.825V20.2913C139.375 20.4992 139.309 20.6693 139.177 20.8016C139.044 20.9339 138.874 21 138.666 21H136.03ZM148.526 21.2835C146.296 21.2835 144.519 20.6787 143.196 19.4692C141.873 18.2597 141.183 16.4643 141.127 14.083C141.127 13.9507 141.127 13.7806 141.127 13.5727C141.127 13.3648 141.127 13.2042 141.127 13.0908C141.183 11.5978 141.514 10.3221 142.119 9.26379C142.743 8.18655 143.593 7.3739 144.67 6.82583C145.766 6.25887 147.042 5.97538 148.497 5.97538C150.16 5.97538 151.531 6.30611 152.608 6.96757C153.704 7.62904 154.526 8.52673 155.074 9.66067C155.622 10.7946 155.896 12.0892 155.896 13.5444V14.2247C155.896 14.4326 155.821 14.6027 155.669 14.735C155.537 14.8673 155.377 14.9335 155.188 14.9335H146.116C146.116 14.9524 146.116 14.9807 146.116 15.0185C146.116 15.0563 146.116 15.0941 146.116 15.1319C146.135 15.68 146.229 16.1808 146.4 16.6344C146.57 17.0879 146.834 17.447 147.193 17.7116C147.552 17.9762 147.987 18.1085 148.497 18.1085C148.875 18.1085 149.187 18.0518 149.433 17.9384C149.697 17.8061 149.915 17.6643 150.085 17.5132C150.255 17.3431 150.387 17.2013 150.482 17.0879C150.652 16.8989 150.784 16.7855 150.879 16.7478C150.992 16.6911 151.162 16.6627 151.389 16.6627H154.904C155.093 16.6627 155.244 16.7194 155.358 16.8328C155.49 16.9273 155.547 17.069 155.528 17.258C155.509 17.5793 155.348 17.9667 155.046 18.4203C154.743 18.8739 154.299 19.3274 153.713 19.781C153.146 20.2157 152.428 20.5748 151.559 20.8583C150.69 21.1417 149.679 21.2835 148.526 21.2835ZM146.116 12.127H150.907V12.0703C150.907 11.4655 150.812 10.9363 150.623 10.4828C150.453 10.0292 150.179 9.67957 149.801 9.43388C149.442 9.18819 149.008 9.06535 148.497 9.06535C147.987 9.06535 147.552 9.18819 147.193 9.43388C146.853 9.67957 146.589 10.0292 146.4 10.4828C146.211 10.9363 146.116 11.4655 146.116 12.0703V12.127Z" fill="white"/>
</svg>
